HIERARCHY
ROOT Hips
{
  OFFSET 27.7174 85.5012 -39.8091
  CHANNELS 6 Xposition Yposition Zposition Zrotation Xrotation Yrotation
  JOINT RightUpLeg
  {
    OFFSET -8.9458 -8.66707 0.101652
    CHANNELS 3 Zrotation Xrotation Yrotation
    JOINT RightLeg
    {
      OFFSET 0 -44.4227 1.3727
      CHANNELS 3 Zrotation Xrotation Yrotation
      JOINT RightFoot
      {
        OFFSET 0.253549 -42.0924 -1.46059
        CHANNELS 3 Zrotation Xrotation Yrotation
        JOINT RightToes
        {
          OFFSET 0.04 -4.41509 8.4991
          CHANNELS 3 Zrotation Xrotation Yrotation
          End Site
          {
            OFFSET -0.08 -0.137448 9.77979
          }
        }
      }
    }
  }
  JOINT Spine
  {
    OFFSET 0 11.8905 0
    CHANNELS 3 Zrotation Xrotation Yrotation
    JOINT Spine1
    {
      OFFSET 0 25.6574 0.127663
      CHANNELS 3 Zrotation Xrotation Yrotation
      JOINT HEad
      {
        OFFSET 0 8.73416 0.011341
        CHANNELS 3 Zrotation Xrotation Yrotation
        End Site
        {
          OFFSET -0.29 12.7742 2.51395
        }
      }
      JOINT LeftShoulder1
      {
        OFFSET 8.99 -0.362252 -0.22
        CHANNELS 3 Zrotation Xrotation Yrotation
        JOINT LeftArm
        {
          OFFSET 10.2827 -0.00338 0.322123
          CHANNELS 3 Zrotation Xrotation Yrotation
          JOINT LeftForeArm
          {
            OFFSET 32.7669 0.099144 -1.42434
            CHANNELS 3 Zrotation Xrotation Yrotation
            JOINT LeftHand
            {
              OFFSET 27.5643 0.085362 1.02216
              CHANNELS 3 Zrotation Xrotation Yrotation
              End Site
              {
                OFFSET 16.7443 -0.6 1.50291
              }
            }
          }
        }
      }
      JOINT RightShoulder
      {
        OFFSET -8.99 -0.362252 -0.22
        CHANNELS 3 Zrotation Xrotation Yrotation
        JOINT RightArm
        {
          OFFSET -10.2827 -0.00338 0.322123
          CHANNELS 3 Zrotation Xrotation Yrotation
          JOINT RightForeArm
          {
            OFFSET -32.8971 0.099144 -1.42434
            CHANNELS 3 Zrotation Xrotation Yrotation
            JOINT RightHand
            {
              OFFSET -27.4921 0.085362 1.02216
              CHANNELS 3 Zrotation Xrotation Yrotation
              End Site
              {
                OFFSET -16.6312 -0.6 1.50291
              }
            }
          }
        }
      }
    }
  }
  JOINT LeftUpLeg
  {
    OFFSET 8.9458 -8.66707 0.101652
    CHANNELS 3 Zrotation Xrotation Yrotation
    JOINT LeftLeg
    {
      OFFSET 0 -44.4227 1.3727
      CHANNELS 3 Zrotation Xrotation Yrotation
      JOINT LeftFoot
      {
        OFFSET -0.253549 -42.0924 -1.46059
        CHANNELS 3 Zrotation Xrotation Yrotation
        JOINT LeftToes
        {
          OFFSET -0.04 -4.41509 8.4991
          CHANNELS 3 Zrotation Xrotation Yrotation
          End Site
          {
            OFFSET 0.08 -0.047448 9.77979
          }
        }
      }
    }
  }
}
MOTION
Frames:	17
Frame Time:	0.0166667
28.2131 94.491 -12.5951 8.75653 -0.641214 119.192 -15.8964 -21.3377 2.41611 9.92735 59.5439 -14.3411 5.01552 0.93075 -0.345577 0.0462048 0.000533403 0.662642 4.26879 15.2388 -14.613 -2.7757e-007 0.00517 9.93411e-008 -22.5885 4.28319 62.1696 0 9.93923e-016 -0 -69.1707 -79.5823 -77.6976 -4.36354 51.1823 -91.9809 -5.81857 31.5266 55.6474 13.2473 3.20598 6.1242 92.8043 -0.129008 79.1469 28.8184 58.9069 73.8334 0.123448 23.5605 -1.48776 44.0604 -27.2618 -3.80254 -32.0768 33.2594 50.3801 0.636262 -2.56761 0.0490657 -6.38221e-009 1.56031e-007 -4.88727e-009 
27.8871 93.6919 -14.0912 8.98969 -0.84861 118.763 -16.4896 -22.0796 2.78745 13.0016 60.118 -17.0887 4.82377 0.305589 -0.276971 0.0462048 0.000533403 0.662642 4.39904 16.0569 -15.6024 -2.7757e-007 0.00517 9.93411e-008 -22.3486 3.3299 62.1797 -4.41391e-032 -1.59028e-015 -1.59028e-015 -32.1056 -74.202 -44.8683 -1.22709 43.1681 -79.6213 -1.69618 31.7044 41.0265 12.6218 2.74758 6.02693 90.1859 -2.98226 78.2169 23.8289 55.9321 79.1562 0.82223 18.2941 8.29878 43.3279 -27.1493 -3.42941 -33.8365 34.6562 48.3629 4.56239 -3.83881 0.224909 -6.38221e-009 1.56031e-007 -4.88727e-009 
28.0015 92.472 -16.6272 9.20233 -0.976685 118.269 -17.6038 -22.3923 3.2952 16.4152 61.3464 -19.7354 5.60602 -1.20682 0.00654336 0.0462048 0.000533403 0.662642 4.44104 16.6965 -16.3249 -2.7757e-007 0.00517 9.93411e-008 -22.0577 2.6213 61.9915 -7.95139e-016 -1.78906e-015 -0 -17.4599 -65.232 -35.433 0.734229 35.4442 -63.7388 -7.43945 27.7493 54.508 12.0252 2.49338 5.98111 88.6802 -4.34625 77.6934 21.5076 53.9779 81.899 0.801054 18.1686 5.72438 42.1291 -27.0882 -2.04245 -35.9398 38.0839 47.0087 8.38932 -7.25663 0.508067 -6.38221e-009 1.56031e-007 -4.88727e-009 
28.4152 90.9858 -19.8581 9.40426 -1.0106 117.731 -19.1054 -22.3747 3.87794 20.1842 62.8903 -22.3534 7.15556 -3.24262 0.529204 0.0462048 0.000533403 0.662642 4.39637 17.1872 -16.8166 -2.7757e-007 0.00517 9.93411e-008 -21.7551 2.12568 61.6406 -7.95139e-016 3.97569e-015 1.59028e-015 -12.092 -55.9341 -36.5151 1.2801 29.2414 -44.2055 5.22935 27.5328 29.5001 11.4016 2.4162 5.90725 88.0066 -4.8674 77.4831 20.5033 52.8371 83.4918 1.15562 16.0706 9.93003 40.8744 -27.2572 -0.553375 -38.7381 42.5145 47.2193 12.1175 -11.8791 1.13809 -6.38221e-009 1.56031e-007 -4.88726e-009 
28.9894 89.3828 -23.4377 9.59724 -0.958648 117.157 -20.8202 -22.1106 4.49213 24.0701 64.4431 -24.8236 9.17407 -5.46026 1.27933 0.0462048 0.000533403 0.662642 4.28081 17.5438 -17.0953 -2.7757e-007 0.00517 9.93411e-008 -21.4837 1.81347 61.1461 -7.95139e-016 -2.38542e-015 3.18055e-015 -11.0803 -48.5143 -42.6123 0.222804 24.6038 -22.5363 -9.58785 17.7077 29.3209 10.7544 2.47862 5.87151 87.9101 -4.9837 77.468 20.1623 52.2044 84.3053 1.01244 16.6486 7.21792 39.3775 -27.4125 0.950673 -41.5971 47.2742 48.5856 15.7782 -16.926 2.19857 -6.38221e-009 1.56031e-007 -4.88727e-009 
29.5834 87.8186 -27.017 9.76879 -0.839505 116.548 -22.5555 -21.7462 5.08418 27.8079 65.8026 -27.0466 11.4015 -7.56604 2.18933 0.0462048 0.000533403 0.662642 4.11789 17.7858 -17.1954 -2.7757e-007 0.00517 9.93411e-008 -21.2811 1.62663 60.533 7.95139e-016 4.96962e-016 -0 -10.2059 -44.1119 -46.8353 -1.67025 17.9142 -4.55142 6.1472 19.323 11.955 10.1204 2.62698 5.80899 88.1602 -4.8253 77.4836 20.085 51.933 84.798 1.25466 15.9292 8.97607 37.63 -27.4105 2.44603 -44.0776 51.7957 50.6286 19.399 -21.745 3.62639 -6.38222e-009 1.56031e-007 -4.88727e-009 
30.0555 86.453 -30.2556 9.89938 -0.676528 115.902 -24.1005 -21.4804 5.57701 31.1264 66.8993 -28.9859 13.4481 -9.32214 3.11925 0.0462048 0.000533403 0.662642 3.90735 17.9255 -17.1242 -2.7757e-007 0.00517 9.93411e-008 -21.1442 1.52788 59.8088 2.75869e-033 9.93923e-017 -1.59028e-015 -10.1108 -41.7362 -49.9213 -1.67576 8.76694 5.19088 -2.32592 9.43081 -0.57603 9.51192 2.82374 5.80822 88.6284 -4.58017 77.4629 20.0725 51.867 85.0542 1.22823 16.6101 6.79025 35.7406 -27.2001 3.93837 -45.7253 55.6518 52.7216 22.9677 -25.7745 5.23851 -6.38221e-009 1.56031e-007 -4.88727e-009 
30.258 85.4532 -32.8193 9.97171 -0.491429 115.211 -25.2468 -21.5398 5.87379 33.8639 67.7344 -30.7128 15.018 -10.5311 3.88775 0.0462048 0.000533403 0.662642 3.65811 17.9701 -16.8787 -2.7757e-007 0.00517 9.93411e-008 -21.0633 1.49431 58.971 -7.95139e-016 -1.09332e-015 -0 -15.0883 -42.7877 -52.9539 0.123576 2.5756 4.52238 17.6232 8.91971 -8.03501 8.98023 3.0586 5.87206 89.1695 -4.33353 77.3523 20.0013 51.9458 85.2903 1.42472 16.4253 7.50455 33.8731 -26.8248 5.43331 -45.9498 58.5186 53.9979 26.4076 -28.5182 6.75953 -6.38221e-009 1.56031e-007 -4.88727e-009 
30.0343 84.9897 -34.3744 9.97662 -0.301598 114.473 -25.7752 -22.1367 5.86752 35.8812 68.3254 -32.2882 15.8133 -11.0154 4.29164 0.0462048 0.000533403 0.662642 3.37458 17.9322 -16.4459 -2.7757e-007 0.00517 9.93411e-008 -21.006 1.51455 58.0091 7.95139e-016 -6.95746e-016 -0 -22.4038 -45.4843 -54.2204 4.21248 -1.85816 2.80539 0.130651 23.5024 -24.7615 8.52394 3.3263 6.03066 89.7289 -4.17355 77.1641 19.8495 52.0983 85.5111 1.46878 16.9542 5.96637 32.189 -26.3793 6.9167 -44.0431 60.1103 53.3969 29.6099 -29.4914 7.86635 -6.38221e-009 1.56031e-007 -4.88727e-009 
29.575 84.8869 -35.2931 9.91446 -0.119769 113.692 -25.9044 -23.0071 5.65709 37.1216 68.7172 -33.5677 16.126 -11.049 4.43144 0.0462048 0.000533403 0.662642 3.06508 17.825 -15.8145 -2.7757e-007 0.00517 9.93411e-008 -20.938 1.58803 56.9128 -1.87591e-031 3.37934e-015 3.18055e-015 -30.5212 -49.5971 -53.8568 4.43091 -3.16879 -7.34196 7.37832 4.36247 -17.3525 8.15373 3.6244 6.26626 90.2513 -4.1552 76.8975 19.6345 52.3021 85.7972 1.62162 16.9306 6.26739 30.6994 -25.9266 8.35589 -40.9611 60.822 51.6432 32.6096 -29.3301 8.62308 -6.38222e-009 1.56031e-007 -4.88727e-009 
29.1543 84.8395 -36.1477 9.79009 0.0374036 112.875 -26.7602 -23.4213 5.55484 35.4757 67.5768 -32.4905 25.7879 -10.2893 5.11187 0.0462048 0.000533403 0.662642 2.73968 17.6714 -14.9878 -2.7757e-007 0.00517 9.93411e-008 -20.8176 1.69753 55.6816 7.95139e-016 9.93923e-016 3.18055e-015 -39.8451 -55.075 -53.6668 -1.04032 0.390844 -24.2161 24.9069 18.0548 -28.6883 7.85218 3.92453 6.55151 90.7371 -4.28664 76.5634 19.3997 52.5236 86.117 1.71389 17.2875 5.22558 29.3618 -25.5179 9.74204 -38.204 61.3144 50.2493 35.5134 -29.0112 9.30018 -6.38221e-009 1.56031e-007 -4.88727e-009 
28.7713 84.9354 -36.9981 9.61116 0.158004 112.043 -26.5085 -24.3088 5.19691 35.2704 67.6452 -34.2992 20.8047 -10.6845 4.97793 0.0462048 0.000533403 0.662642 2.40626 17.4849 -13.9792 -2.7757e-007 0.00517 9.93411e-008 -20.6082 1.84028 54.3172 1.59028e-015 -9.93923e-017 -1.59028e-015 -51.1233 -62.0136 -55.4752 -8.08408 9.60919 -41.1547 18.1957 21.469 -15.0542 7.63743 4.20949 6.87358 91.1619 -4.604 76.1603 19.189 52.752 86.4921 1.8444 17.3346 5.31769 28.0736 -25.0753 11.0282 -35.5578 61.4866 49.0048 38.3579 -28.5207 9.89065 -6.38222e-009 1.56031e-007 -4.88726e-009 
28.4535 85.019 -37.7698 9.38729 0.234425 111.23 -26.6946 -24.5865 4.91091 33.7968 67.3363 -33.378 23.0491 -10.357 5.08177 0.0462048 0.000533403 0.662642 2.07396 17.276 -12.819 -2.7757e-007 0.00517 9.93411e-008 -20.2845 2.01301 52.8246 7.95139e-016 9.93923e-017 -4.77083e-015 -67.2894 -69.7535 -62.7301 -15.4043 22.9979 -56.045 26.2769 9.64083 -19.1533 7.51894 4.46285 7.20658 91.5261 -5.09831 75.6996 19.0227 52.9712 86.8878 1.95711 17.6178 4.60317 27.0089 -24.747 12.2232 -33.4575 61.5763 48.2618 41.0901 -27.991 10.4095 -6.38222e-009 1.56031e-007 -4.88728e-009 
28.1777 85.1598 -38.5009 9.13046 0.257053 110.465 -26.5747 -24.8542 4.53375 32.0249 67.2363 -32.2556 21.8485 -10.3879 4.93408 0.0462048 0.000533403 0.662642 1.7542 17.0542 -11.5448 -2.7757e-007 0.00517 9.93411e-008 -19.8295 2.21066 51.215 2.75869e-033 9.93923e-017 -1.59028e-015 -96.8292 -76.231 -83.7517 -23.4812 38.1674 -67.609 22.0785 28.057 0.364409 7.49374 4.67117 7.50835 91.8526 -5.7333 75.2038 18.9162 53.1777 87.3016 2.06445 17.7618 4.60679 26.077 -24.4805 13.2891 -31.6473 61.498 47.7692 43.7375 -27.3792 10.8501 -6.38222e-009 1.56031e-007 -4.88727e-009 
27.9348 85.3224 -39.1796 8.86501 0.244034 109.719 -26.4498 -25.0206 4.14718 29.9431 67.0481 -30.6334 21.1775 -10.3321 4.79048 0.0462048 0.000533403 0.662642 1.43702 16.8271 -10.2376 -2.7757e-007 0.00517 9.93411e-008 -19.3075 2.39866 49.5786 -7.95139e-016 -9.93923e-016 3.18055e-015 -143.812 -77.4454 -122.578 -31.7255 53.511 -74.6186 19.2561 32.4999 11.6063 7.53764 4.86704 7.81089 92.1519 -6.43574 74.7022 18.8386 53.3807 87.7256 2.17503 17.9519 4.47356 25.2303 -24.2675 14.3242 -29.9323 61.3308 47.3148 46.3459 -26.7295 11.2352 -6.38221e-009 1.56031e-007 -4.88727e-009 
27.7174 85.5012 -39.8091 8.59634 0.189606 109.008 -26.3027 -25.1212 3.73834 27.6123 66.7822 -28.6056 20.7992 -10.2616 4.65271 0.0462048 0.000533403 0.662642 1.12769 16.5905 -8.90832 -2.7757e-007 0.00517 9.93411e-008 -18.7109 2.58205 47.9003 -7.95139e-016 -2.38542e-015 -1.59028e-015 -176.888 -73.091 -148.638 -43.4659 66.9026 -74.6487 21.6735 31.7814 14.4905 7.64835 5.04005 8.10352 92.4445 -7.20377 74.2116 18.7991 53.5739 88.1429 2.27468 18.1704 4.30489 24.4723 -24.0978 15.3136 -28.2816 61.0757 46.8634 48.9 -26.0496 11.5628 -6.38223e-009 1.56031e-007 -4.88727e-009 
27.5173 85.6877 -40.385 8.33029 0.0940139 108.349 -26.128 -25.1621 3.30092 25.0312 66.4432 -26.2069 20.5359 -10.1849 4.50748 0.0462048 0.000533403 0.662642 0.830551 16.3429 -7.56743 -0.000140284 0.00518999 0.000200103 -18.0442 2.76879 46.1848 7.95139e-016 0 1.59028e-015 166.339 -67.2712 -159.284 -68.4489 77.1899 -58.9273 27.678 29.2215 11.8094 7.8066 5.19019 8.40187 92.7617 -8.02857 73.7608 18.8049 53.7497 88.519 2.35587 18.4051 4.16465 23.8035 -23.9578 16.2437 -26.6862 60.7359 46.3952 51.3866 -25.3445 11.8327 -6.38222e-009 1.56031e-007 -4.88728e-009 
